<svg xmlns="http://www.w3.org/2000/svg" xmlns:svg="http://www.w3.org/2000/svg" id="svg4116" version="1.1" viewBox="0 0 905.17 592.85"><g id="layer1" transform="translate(-78.562 -68.028)"><path style="color:#000;fill-opacity:.92203;fill:#1a1a1a" id="path3756-0-8-4" d="m845.49 333.04-26.609 25.617 34.092 74.998c1.778 3.9115-10.382 44.114-13.43 46.186-28.918 19.658-96.507 7.3776-192.56 27.893-139.5 29.792-281.92 4.4877-377.1-3.006-47.689-4.9223-80.533 60.051-127.85 61.686 0 0-32.178 1.6873-35.987-3.0675-0.4751-0.5932-21.976 18.735-21.976 18.735 2.8068 5.998 16.269 36.039 17.061 35.769 5.7067 0.039 5.4781-1.1359 11.458 0.4348 104.56 21.612 141.67 21.083 223.79 28.201 90.251 7.8223 251.03 26.583 422.77 2.602 133.68-18.668 144.78-13.264 176.29-30.096 38.214-18.366 40.377-39.61 43.888-53.339 17.805-69.626-22.475-101.45-48.116-143.38l-54.44-76.189zm9.7987 30.192 0.3443 0.2836c-0.1181 0.01-0.2367 0-0.3443 0.019z"/><path style="color:#000;stroke:#000;stroke-width:7.0866;fill-opacity:.92203;fill:#3c2419" id="path3756-0-8-4-5" d="m828.26 76.808-26.562 42.344s22.688 82.646 34.031 123.97c1.7749 6.4656-10.363 72.919-13.406 76.344-28.867 32.494-74.863 71.996-170.75 105.91-139.25 49.246-281.42 7.418-376.44-4.9688-47.605-8.1366-93.218 1.5503-140.45 4.2535-0.8964-2.5065-26.994 11.062-30.795 3.2024-0.4743-0.98045-20.777 22.81-20.164 24.982 2.8018 9.9144 17.146 28.413 14.592 48.038 5.6966 0.064 7.9076 9.2097 13.877 11.806 20.584 44.973 144.58 109.7 226.56 121.47 90.092 12.93 241.04 43.705 412.19 0.9063 43.923-10.984 116.84-55.531 153.12-84.406 38.146-30.358 49.661-70.164 57.781-89.344 27.436-64.804-22.435-167.69-48.031-237l-54.35-125.94zm9.7813 49.906 0.3437 0.46875c-0.1179 0.01-0.2363 0.003-0.3437 0.0313z"/><path style="color:#000;fill-opacity:.92203;fill:#3c2419" id="path3756-0-8-4-8" d="m835.98 68.028-27.022 43.076s23.08 84.075 34.62 126.11c1.8056 6.5774-10.543 74.18-13.638 77.664-29.366 33.056-76.158 73.241-173.7 107.74-141.66 50.097-286.28 7.5464-382.95-5.0547-48.428-8.2773-66.356-6.5782-114.4-3.8284-12.221 2.3285-38.137 8.7708-57.841 4.8521-0.4825-0.99741-23.098 29.766-22.474 31.975 2.8503 10.086 16.521 60.601 17.326 60.148 5.7952 0.0648 3.5673 0.97258 9.6398 3.6139 20.94 45.751 149.08 108.72 232.48 120.69 91.65 13.153 245.21 44.461 419.32 0.92193 44.683-11.174 118.86-56.491 155.77-85.866 38.806-30.884 51.797-73.353 53.902-94.437 10.171-101.85-17.945-167.05-43.984-237.55l-55.3-128.11zm9.9505 50.769 0.3496 0.47686c-0.1199 0.0102-0.2404 0.003-0.3496 0.0318z"/><path id="path3777-0" d="m175.62 454.94c0 28.902-27.401 52.332-61.202 52.332s-61.202-23.43-61.202-52.332 27.401-52.332 61.202-52.332 61.202 23.43 61.202 52.332z" transform="translate(37.787,16.708)" style="color:#000;fill:#9b9d00"/><path style="color:#000;fill:#a4ad00" id="path3756-0-8-2" d="m960.2 458.59c-4.8191 20.263-19.629 58.988-57.776 89.347-36.283 28.875-109.2 73.41-153.12 84.393-171.15 42.799-322.09 12.029-412.18-0.90118-97.297-13.964-257.57-98.744-230.1-140.35 13.282-20.119 146.76-3.7537 242.94 27.6 91.105 29.699 249.82 60.954 389.07 11.708 137.94-48.784 129.01-359.73 121.62-407.84-6.0374-39.3 132.41 197.87 99.545 336.04z"/><path style="color:#000;fill:#000" id="path2985-1" d="m109.78 459.51c1.1087 32.129 3.6219 41.68-10.669 49.73-0.7917 0.44601-14.234-49.2-17.036-59.114-0.6136-2.1714 25.459-19.842 26.155-19.005 29.089 35.025 0.4721-2.834 1.5496 28.389z"/><path style="color:#000;fill:#ff0" id="path3756-0-3" d="m935.9 413.17c-4.8191 20.263-29.664 45.19-67.811 75.548-36.283 28.875-121.14 35.682-165.04 46.762-143.21 36.147-260.13-0.31148-367.57-27.839-93.959-24.074-220.52-44.13-220.52-53.652 0-9.5216 120.8-12.084 216.98 0.4538 95.019 12.387 237.19 54.225 376.44 4.9795 68.972-24.392 125.62-94.706 127.45-167.03 1.4133-55.761-16.478-99.804-16.147-128.81 0.3308-29.006 2.4742-27.454 8.9206-37.706 5.2916-8.4147 19.78 0.26882 30.57 11.053 10.79 10.785 14.007 27.362 27.266 56.899 27.023 60.199 65.894 150.25 49.464 219.34z"/><path style="color:#000;fill:#ffffb5" id="path3756-5" d="m871.6 364.68c-6.4964 30.752-43.003 62.674-58.487 71.805-24.257 14.304-52.185 24.985-177.45 37.892-146.92 15.13-260.04-16.77-356.84-23.01-96.79-6.24-167.3-9.54-167.3-19.06 0-9.5216 65.803-27.163 161.98-14.625 95.019 12.387 239.35 56.978 378.95 8.7426 195.65-67.6 167.09-115.85 203.16-143.56 31.531-24.222 25.992 34.467 15.992 81.807z"/><path style="color:#000;fill:#3c261a" id="rect3797-4" d="m835.03 68.342 33.007 20.647 23.492 113.56c-14.211 0-30.228-99.565-55.454-79.8-9.0071 38.282-2.7952 80.788 1.138 121.42-4.6313 8.9814-3.9251 7.4494-8.47-16.389-5.4946-28.82-22.494-90.054-28.687-111.34z"/><path id="use4132" d="m-205.72 999.99c0 4.1567-8.4241 7.5263-18.816 7.5263s-18.816-3.3696-18.816-7.5263 8.4241-7.5263 18.816-7.5263 18.816 3.3696 18.816 7.5263z" transform="matrix(-.0072564 .15236 -.29468 -.0037518 607.51 502.49)" style="color:#000;fill-opacity:.92203;fill:#3c2419"/><path id="use4154" d="m-205.72 999.99c0 4.1567-8.4241 7.5263-18.816 7.5263s-18.816-3.3696-18.816-7.5263 8.4241-7.5263 18.816-7.5263 18.816 3.3696 18.816 7.5263z" transform="matrix(.21222 .054465 -.10534 .10972 732.18 375.55)" style="color:#000;fill-opacity:.92203;fill:#3c2419"/><path id="use4156" d="m-205.72 999.99c0 4.1567-8.4241 7.5263-18.816 7.5263s-18.816-3.3696-18.816-7.5263 8.4241-7.5263 18.816-7.5263 18.816 3.3696 18.816 7.5263z" transform="matrix(.4966 .14279 -.27616 .25676 1025.4 249.13)" style="color:#000;fill-opacity:.92203;fill:#3c2419"/><path id="use4158" d="m-205.72 999.99c0 4.1567-8.4241 7.5263-18.816 7.5263s-18.816-3.3696-18.816-7.5263 8.4241-7.5263 18.816-7.5263 18.816 3.3696 18.816 7.5263z" transform="matrix(.55975 .053366 -.10322 .28941 878.77 195.7)" style="color:#000;fill-opacity:.92203;fill:#3c2419"/><path id="use4168" d="m-205.72 999.99c0 4.1567-8.4241 7.5263-18.816 7.5263s-18.816-3.3696-18.816-7.5263 8.4241-7.5263 18.816-7.5263 18.816 3.3696 18.816 7.5263z" transform="matrix(.24424 -.13077 .25293 .12628 444.75 309.97)" style="color:#000;fill-opacity:.92203;fill:#3c2419"/><path id="use4210" d="m-205.72 999.99c0 4.1567-8.4241 7.5263-18.816 7.5263s-18.816-3.3696-18.816-7.5263 8.4241-7.5263 18.816-7.5263 18.816 3.3696 18.816 7.5263z" transform="matrix(-.014186 .11406 -.22061 -.0073346 625.39 499.03)" style="color:#000;fill-opacity:.92203;fill:#3c2419"/><path id="use4212" d="m-205.72 999.99c0 4.1567-8.4241 7.5263-18.816 7.5263s-18.816-3.3696-18.816-7.5263 8.4241-7.5263 18.816-7.5263 18.816 3.3696 18.816 7.5263z" transform="matrix(.10385 .10153 -.19636 .053696 640.19 436.46)" style="color:#000;fill-opacity:.92203;fill:#3c2419"/><path id="use4218" d="m-205.72 999.99c0 4.1567-8.4241 7.5263-18.816 7.5263s-18.816-3.3696-18.816-7.5263 8.4241-7.5263 18.816-7.5263 18.816 3.3696 18.816 7.5263z" transform="matrix(.047382 .12977 -.25098 .024498 783.07 480.22)" style="color:#000;fill-opacity:.92203;fill:#3c2419"/><path id="use4236" d="m-205.72 999.99c0 4.1567-8.4241 7.5263-18.816 7.5263s-18.816-3.3696-18.816-7.5263 8.4241-7.5263 18.816-7.5263 18.816 3.3696 18.816 7.5263z" transform="matrix(.063372 -.20453 .39558 .032766 252.1 406.37)" style="color:#000;fill-opacity:.92203;fill:#3c2419"/><path id="use4238" d="m-205.72 999.99c0 4.1567-8.4241 7.5263-18.816 7.5263s-18.816-3.3696-18.816-7.5263 8.4241-7.5263 18.816-7.5263 18.816 3.3696 18.816 7.5263z" transform="matrix(.31116 -.015985 .030916 .16088 737.22 304.54)" style="color:#000;fill-opacity:.92203;fill:#3c2419"/><path id="use4150" d="m-205.72 999.99c0 4.1567-8.4241 7.5263-18.816 7.5263s-18.816-3.3696-18.816-7.5263 8.4241-7.5263 18.816-7.5263 18.816 3.3696 18.816 7.5263z" transform="matrix(.20316 -.075403 -.20035 -.07646 1081.9 565.4)" style="color:#000;fill-opacity:.92203;fill:#3c2419"/><path id="use4152-9" d="m-205.72 999.99c0 4.1567-8.4241 7.5263-18.816 7.5263s-18.816-3.3696-18.816-7.5263 8.4241-7.5263 18.816-7.5263 18.816 3.3696 18.816 7.5263z" transform="matrix(.64766 .02487 .066081 -.24375 611.09 810.29)" style="color:#000;fill-opacity:.92203;fill:#3c2419"/><path id="use4160-3" d="m-205.72 999.99c0 4.1567-8.4241 7.5263-18.816 7.5263s-18.816-3.3696-18.816-7.5263 8.4241-7.5263 18.816-7.5263 18.816 3.3696 18.816 7.5263z" transform="matrix(.18235 -.12626 -.33547 -.068627 988.65 597.96)" style="color:#000;fill-opacity:.92203;fill:#3c2419"/><path id="use4162-7" d="m-205.72 999.99c0 4.1567-8.4241 7.5263-18.816 7.5263s-18.816-3.3696-18.816-7.5263 8.4241-7.5263 18.816-7.5263 18.816 3.3696 18.816 7.5263z" transform="matrix(-.094332 .22459 .59675 .035502 -2.5842 571.86)" style="color:#000;fill-opacity:.92203;fill:#3c2419"/><path id="use4166-6" d="m-205.72 999.99c0 4.1567-8.4241 7.5263-18.816 7.5263s-18.816-3.3696-18.816-7.5263 8.4241-7.5263 18.816-7.5263 18.816 3.3696 18.816 7.5263z" transform="matrix(.20492 -.080333 -.21345 -.077123 846.49 597.29)" style="color:#000;fill-opacity:.92203;fill:#3c2419"/><path id="use4172-7" d="m-205.72 999.99c0 4.1567-8.4241 7.5263-18.816 7.5263s-18.816-3.3696-18.816-7.5263 8.4241-7.5263 18.816-7.5263 18.816 3.3696 18.816 7.5263z" transform="matrix(1.0172 -.25379 -.67434 -.38281 1524.6 876.83)" style="color:#000;fill-opacity:.92203;fill:#3c2419"/><path id="use4174-3" d="m-205.72 999.99c0 4.1567-8.4241 7.5263-18.816 7.5263s-18.816-3.3696-18.816-7.5263 8.4241-7.5263 18.816-7.5263 18.816 3.3696 18.816 7.5263z" transform="matrix(.01131 .1733 .46046 -.0042565 151.67 588.04)" style="color:#000;fill-opacity:.92203;fill:#3c2419"/><path id="use4182-5" d="m-205.72 999.99c0 4.1567-8.4241 7.5263-18.816 7.5263s-18.816-3.3696-18.816-7.5263 8.4241-7.5263 18.816-7.5263 18.816 3.3696 18.816 7.5263z" transform="matrix(.30406 -.070225 -.18659 -.11443 898.87 642.25)" style="color:#000;fill-opacity:.92203;fill:#3c2419"/><path id="use4184-8" d="m-205.72 999.99c0 4.1567-8.4241 7.5263-18.816 7.5263s-18.816-3.3696-18.816-7.5263 8.4241-7.5263 18.816-7.5263 18.816 3.3696 18.816 7.5263z" transform="matrix(.035832 -.31673 -.84158 -.013486 1520.3 486.11)" style="color:#000;fill-opacity:.92203;fill:#3c2419"/><path id="use4230-7" d="m-205.72 999.99c0 4.1567-8.4241 7.5263-18.816 7.5263s-18.816-3.3696-18.816-7.5263 8.4241-7.5263 18.816-7.5263 18.816 3.3696 18.816 7.5263z" transform="matrix(.2137 -.21997 -.58447 -.080428 1214.5 592.54)" style="color:#000;fill-opacity:.92203;fill:#3c2419"/><path id="use4150-2" d="m-205.72 999.99c0 4.1567-8.4241 7.5263-18.816 7.5263s-18.816-3.3696-18.816-7.5263 8.4241-7.5263 18.816-7.5263 18.816 3.3696 18.816 7.5263z" transform="matrix(.21277 -.041116 -.18513 -.10824 808.46 724.41)" style="color:#000;fill-opacity:.92203;fill:#3c2419"/></g><metadata id="metadata75"/></svg>